<?xml version="1.0" encoding="UTF-8"?>
<svg id="Layer_2" data-name="Layer 2" xmlns="http://www.w3.org/2000/svg" viewBox="0 0 499.48 129.78">
  <defs>
    <style>
      .cls-1 {
        fill: #d3fa6f;
      }
    </style>
  </defs>
  <g id="ROLLED">
    <g>
      <g>
        <g>
          <path class="cls-1" d="M59.67,83.32c.44.46.29,1.15-.22,1.95-12.65,16.32-23.39,37.42-44.93,42.84-3.31.78-12.18,3.13-14.41.32-1.2-3.17,7.18-6.75,9.4-8.34,1.5-.93,3.01-1.91,4.49-2.91,10.95-7.29,17.05-16.04,18.6-28.92.18-.97.5-1.83,1.07-2.45,3.71-3.42,21.57-4.92,25.95-2.53l.04.04Z"/>
          <path class="cls-1" d="M66.79,66.89c5.82.96,11.64,2.58,16.86,5.36,3.74,2.16-1.83,2.78-3.46,3.24-3.88.94-7.67,2.45-11.43,3.73-.85.29-1.74.5-2.64.54-1.05.06-2.12-.14-3.16-.38-9.09-2.21-18.56-1.59-27.61.69-2.26.38-1.74-1.79-1.26-3.17,1.23-3.15,3.28-9.45,6.64-10.64,3.51-.91,7.25-.76,10.86-.85,5.08,0,10.13.55,15.1,1.46l.09.02Z"/>
          <path class="cls-1" d="M108.76,72.31c.15.91-4.27.8-8.37.73-3.12-.05-5.91.07-7.23-.25-1.3-.33-2.51-1.08-3.65-1.8-10.63-6.81-23.61-9.22-36.16-9.71-2.33-.13-5.14-.03-7.33.09-1.21.04-2-.02-2.06-.56-.06-.42.33-1.11.91-1.87.87-1.14,2.19-2.52,3.26-3.71,2.12-2.32,4.58-5.27,6.89-5.74,2.56-.68,5.86-.05,8.59.25,16.88,1.74,34.79,8.65,45.14,22.52v.05Z"/>
          <path class="cls-1" d="M122.06,68.97c.93,1.89,4.16,7.1,2.83,8.39-.84.81-2.98-.6-4.17-1.19s-2.27-1.03-3.58-1.85c-.77-.49-1.71-1.04-2.32-1.8-12.02-16.13-31.37-25.22-51.18-27.08-.9-.11-2.74-.22-2.95-.93-.14-.98,2.43-2.13,3.47-2.58,25.4-10.51,45.76,4.55,57.85,26.96l.05.08Z"/>
        </g>
        <path class="cls-1" d="M111.12,86.1c-.3-5.68-6.57-6.81-11.83-6.59-8.24.27-16.05,2.21-23.63,4.97l-.08.03c-6.92,2.09-13.3,9.46-16.54,16.27-14.97,33.62,53.98,8.74,52.08-14.68ZM94.46,95.16c-3.93,3.34-9.41,5.76-14.35,7.61-3.48,1.33-11.37,4.04-7.87-2.9,1.35-2.89,4.17-6.84,7.98-8.87,4.37-2.3,10.13-2.6,14.83-2,1.11.15,2.83.57,2.99,1.16v.03c.32,1.36-1.26,2.97-3.58,4.97Z"/>
        <path class="cls-1" d="M105,18.96c.52.83.65.92.74,1.5.67,4.16-1.16,6.64-.39,11.07.97,5.64,2.84,13.01,8.47,16.11,3.78,2.08,5.34-3.73,7.26-5.23,2.63-2.04,6.78.23,9.39.63,4.94.76,14.49,3.32,17.36-1.13,4.47-6.95-2.2-8.13-6.43-11.4-5-3.03-8.45-7.17-13.07-10.64-2.78-2.08-7.57-1.25-10.2-3.6-2.63-2.34-2.48-6.92-4.1-9.6-1.4-2.3-3.59-4.12-5.43-5.15-2.3-1.29-4.79-2.3-6.61-.78-3.65,3.05-1.26,8.25-.34,11.7.76,2.85,2.08,4.47,3.35,6.5Z"/>
      </g>
      <g>
        <path class="cls-1" d="M203.03,110.1V45.55h12.56v8.51l.03,1.94,1.27-2.07c1.06-1.5,2.52-3.03,4.34-4.53,1.81-1.51,4.04-2.76,6.62-3.74,2.56-.98,5.3-1.47,8.15-1.47h2.86v13.1c-.59-.12-1.23-.23-1.89-.33-.98-.14-1.99-.21-3.02-.21-3.28,0-6.38.88-9.19,2.62-2.81,1.74-5.07,4.2-6.7,7.33-1.63,3.12-2.46,6.64-2.46,10.45v32.96h-12.56Z"/>
        <path class="cls-1" d="M304.83,60.8c-2.95-5.13-7.04-9.23-12.17-12.17-5.13-2.95-10.86-4.44-17.03-4.44s-11.89,1.49-17.03,4.44c-5.13,2.95-9.23,7.04-12.17,12.17-2.95,5.14-4.44,10.86-4.44,17.03s1.49,11.89,4.44,17.03c2.94,5.14,7.04,9.23,12.17,12.17,5.13,2.95,10.86,4.45,17.03,4.45s11.9-1.5,17.03-4.45c5.14-2.95,9.23-7.04,12.17-12.17,2.95-5.13,4.44-10.86,4.44-17.03s-1.49-11.89-4.44-17.03ZM293.99,88.97c-1.82,3.32-4.38,5.94-7.6,7.81-3.21,1.87-6.83,2.81-10.75,2.81s-7.54-.94-10.75-2.81c-3.22-1.87-5.78-4.49-7.6-7.81-1.82-3.3-2.74-7.05-2.74-11.14s.93-7.84,2.74-11.15c1.82-3.3,4.37-5.93,7.6-7.81,3.22-1.86,6.83-2.81,10.75-2.81h0c3.91,0,7.53.95,10.75,2.82,3.23,1.87,5.78,4.5,7.6,7.81,1.81,3.31,2.73,7.05,2.73,11.14s-.93,7.84-2.73,11.14Z"/>
        <rect class="cls-1" x="317.85" y="18.68" width="12.56" height="91.42"/>
        <rect class="cls-1" x="339.56" y="18.68" width="12.56" height="91.42"/>
        <path class="cls-1" d="M416.87,84.61c-1.56,2.88-3.51,5.48-5.8,7.72-2.44,2.39-5.54,4.24-9.24,5.47-2.49.83-4.97,1.26-7.4,1.26-.94,0-1.89-.06-2.83-.19-3.35-.45-6.38-1.6-9.01-3.43-2.63-1.82-4.69-4.16-6.12-6.94l-.3-.58,48.18-16.19c-.08-.66-.22-1.48-.42-2.44-.26-1.2-.61-2.44-1.04-3.7-1.9-5.67-4.95-10.4-9.05-14.06-4.09-3.65-8.89-6.03-14.28-7.1-1.93-.38-3.9-.57-5.86-.57-3.54,0-7.17.62-10.81,1.84-5.67,1.9-10.46,5.11-14.25,9.54-3.79,4.43-6.3,9.6-7.47,15.36-1.18,5.75-.77,11.64,1.19,17.48,1.96,5.84,5.2,10.8,9.63,14.73,4.43,3.93,9.61,6.5,15.41,7.66,2.16.43,4.34.65,6.5.65,3.66,0,7.38-.63,11.06-1.87,5.94-1.99,10.86-4.93,14.62-8.74,3.61-3.65,6.15-7.32,7.56-10.91l-10.27-5.01ZM372.66,77.98c-.15-3.35.21-6.48,1.09-9.29.88-2.81,2.42-5.33,4.56-7.49,2.14-2.14,4.88-3.79,8.15-4.88,2.11-.71,4.2-1.08,6.2-1.08.93,0,1.85.08,2.74.23,2.83.48,5.44,1.61,7.76,3.35,2.31,1.74,4.31,4.07,5.97,6.95l.33.59-36.75,12.35-.03-.75Z"/>
        <path class="cls-1" d="M486.92,18.68v36.07l-.03,1.3-1.14-1.46c-1.06-1.67-2.65-3.29-4.72-4.84-2.09-1.55-4.66-2.89-7.66-3.96-2.99-1.07-6.22-1.61-9.59-1.61-5.34,0-10.36,1.47-14.96,4.36-4.59,2.9-8.33,6.95-11.09,12.04-2.77,5.09-4.18,10.9-4.18,17.25s1.41,12.15,4.18,17.25c2.77,5.09,6.5,9.14,11.09,12.04,4.58,2.89,9.62,4.36,14.96,4.36h0c3.39,0,6.61-.54,9.59-1.61,3-1.08,5.58-2.41,7.65-3.96,2.09-1.55,3.67-3.18,4.72-4.85l1.17-1.86v10.9h12.56V18.68h-12.56ZM484.18,88.97c-1.82,3.32-4.3,5.94-7.38,7.81-3.08,1.87-6.54,2.82-10.29,2.82s-7.2-.95-10.28-2.82-5.56-4.49-7.38-7.81c-1.81-3.3-2.73-7.05-2.73-11.14s.92-7.83,2.73-11.14c1.82-3.31,4.3-5.93,7.38-7.81,3.09-1.87,6.55-2.82,10.28-2.82h0c3.73,0,7.19.96,10.29,2.83,3.08,1.88,5.57,4.5,7.38,7.8,1.82,3.31,2.74,7.06,2.74,11.15s-.93,7.83-2.74,11.14Z"/>
      </g>
    </g>
  </g>
</svg>